<svg width="22" height="20" viewBox="0 0 22 20" fill="none" xmlns="http://www.w3.org/2000/svg">
    <path d="M10.6366 2.8377L11 3.15763L11.3634 2.8377C11.5944 2.63437 11.8094 2.43183 12.0173 2.23608C12.9916 1.3184 13.8075 0.55 15.3615 0.55C16.376 0.55 17.1592 0.710002 17.8258 0.998749C18.4936 1.28803 19.0749 1.71967 19.6702 2.30476C20.82 3.43736 21.45 4.93646 21.45 6.5325C21.45 8.12718 20.8201 9.62608 19.6706 10.7573C19.6704 10.7575 19.6702 10.7577 19.67 10.7579L11 19.2309L2.32998 10.7567C2.32974 10.7565 2.3295 10.7562 2.32926 10.756C1.17983 9.62474 0.55 8.12588 0.55 6.53125C0.55 4.93507 1.18006 3.43602 2.32978 2.30476C3.48536 1.16899 4.85265 0.55 6.6385 0.55C8.10367 0.55 9.07097 1.42519 10.1566 2.40745C10.3135 2.54941 10.4729 2.6936 10.6366 2.8377Z" fill="white" fill-opacity="0.48" stroke="black" stroke-width="1.1"/>
</svg>
