<svg width="24" height="24" viewBox="0 0 24 24" fill="none" xmlns="http://www.w3.org/2000/svg">
<circle cx="12" cy="12" r="11.4" stroke="black" stroke-width="1"/>
<path d="M19.9272 20.1418C19.7532 20.1418 19.595 20.02 19.5571 19.8428C18.8737 16.709 16.0484 14.4358 12.8355 14.4358H11.165C7.95371 14.4358 5.12682 16.709 4.44344 19.8428C4.39914 20.0485 4.19666 20.1782 3.99101 20.1323C3.78536 20.088 3.65564 19.8855 3.70152 19.6799C3.8866 18.8336 4.21089 18.0299 4.66965 17.2928C5.11891 16.5698 5.68208 15.9292 6.34174 15.3897C7.00931 14.8455 7.75597 14.4232 8.56117 14.1305C9.39484 13.8284 10.2712 13.6749 11.165 13.6749H12.8355C13.7293 13.6749 14.6057 13.8284 15.4393 14.1305C16.2445 14.4232 16.9912 14.8455 17.6588 15.3897C18.32 15.9292 18.8832 16.5683 19.3309 17.2928C19.788 18.0299 20.1139 18.8336 20.299 19.6799C20.3433 19.8855 20.2136 20.0864 20.0095 20.1323C19.9826 20.1386 19.9541 20.1418 19.9272 20.1418Z" fill="black" stroke="black" stroke-width="0.2"/>
<path d="M12.0001 14.436C10.6887 14.436 9.45477 13.9251 8.52776 12.9981C7.60076 12.0711 7.0898 10.8372 7.0898 9.52575C7.0898 8.21434 7.60076 6.98045 8.52776 6.05344C9.45477 5.12644 10.6887 4.61548 12.0001 4.61548C13.3115 4.61548 14.5454 5.12644 15.4724 6.05344C16.3994 6.98045 16.9103 8.21434 16.9103 9.52575C16.9103 10.8372 16.3994 12.0711 15.4724 12.9981C14.5454 13.9251 13.3115 14.436 12.0001 14.436ZM12.0001 5.3748C9.71104 5.3748 7.84912 7.23672 7.84912 9.52575C7.84912 11.8148 9.71104 13.6767 12.0001 13.6767C14.2891 13.6767 16.151 11.8148 16.151 9.52575C16.151 7.23672 14.2891 5.3748 12.0001 5.3748Z" fill="black" stroke="black" stroke-width="0.2"/>
</svg>
